<svg xmlns="http://www.w3.org/2000/svg" preserveAspectRatio="xMidYMid" width="53.84" height="42.562" viewBox="0 0 53.84 42.562"><defs><style>.cls-1{fill:#000;fill-rule:evenodd}</style></defs><path d="M3.159 42.557a3.156 3.156 0 0 1-2.697-4.791l7.236-11.955a3.156 3.156 0 0 1 2.556-1.519 3.171 3.171 0 0 1 2.684 1.281l2.938 3.984 6.426-10.754a3.152 3.152 0 0 1 2.535-1.532 3.146 3.146 0 0 1 2.689 1.244l5.572 7.349L47.98 1.514a3.155 3.155 0 1 1 5.385 3.291L36.071 33.103a3.15 3.15 0 0 1-2.535 1.506 3.161 3.161 0 0 1-2.673-1.245l-5.542-7.31-6.462 10.813a3.15 3.15 0 0 1-2.556 1.533 3.147 3.147 0 0 1-2.692-1.279l-2.955-4.008-4.794 7.921a3.154 3.154 0 0 1-2.703 1.523z" class="cls-1"/></svg>