<svg xmlns="http://www.w3.org/2000/svg" preserveAspectRatio="xMidYMid" width="52.188" height="47" viewBox="0 0 52.188 47"><defs><style>.cls-1{fill:#000;fill-rule:evenodd}</style></defs><path d="M47.834 25.988C37.147 37.895 27.703 46.335 27.609 46.419a2.296 2.296 0 0 1-3.059 0c-.094-.084-9.538-8.524-20.225-20.431C-.09 21.072-1.209 14.742 1.33 9.057 3.786 3.558 9.003.004 14.618.004c5.689 0 9.342 2.528 11.461 5.226C28.199 2.532 31.852.004 37.541.004c5.615 0 10.831 3.554 13.288 9.053 2.539 5.685 1.42 12.015-2.995 16.931zM46.631 10.93c-1.692-3.788-5.344-6.333-9.09-6.333-7.645 0-9.168 5.861-9.229 6.111a2.299 2.299 0 0 1-4.465 0c-.161-.609-1.822-6.111-9.229-6.111-3.746 0-7.399 2.545-9.09 6.333-1.805 4.04-.996 8.41 2.218 11.991 7.996 8.907 15.271 15.832 18.333 18.67 3.062-2.838 10.338-9.763 18.334-18.67 3.214-3.581 4.023-7.951 2.218-11.991zm-4.07 7.351a2.297 2.297 0 0 1-2.446-2.14c-.269-4.042-3.098-4.473-3.218-4.489a2.297 2.297 0 1 1 .62-4.551c2.305.313 6.773 2.543 7.185 8.735a2.3 2.3 0 0 1-2.141 2.445zm-2.936.997c.603 0 1.195.247 1.626.672.425.424.672 1.016.672 1.625 0 .602-.247 1.194-.672 1.624a2.338 2.338 0 0 1-1.626.673 2.334 2.334 0 0 1-1.626-.673 2.328 2.328 0 0 1-.673-1.624c0-.609.247-1.201.673-1.625a2.333 2.333 0 0 1 1.626-.672z" class="cls-1"/></svg>