<svg xmlns="http://www.w3.org/2000/svg" preserveAspectRatio="xMidYMid" width="39.094" height="50.656" viewBox="0 0 39.094 50.656"><defs><style>.cls-1{fill:#000;fill-rule:evenodd}</style></defs><path d="M34.78 50.671H4.299c-2.613 0-4.3-1.614-4.3-4.112V4.122c0-2.498 1.687-4.112 4.3-4.112H34.78c2.612 0 4.3 1.614 4.3 4.112v42.437c0 2.498-1.688 4.112-4.3 4.112zm1.015-46.549c0-.459 0-.822-1.015-.822H4.299c-1.016 0-1.016.363-1.016.822v42.437c0 .46 0 .822 1.016.822H34.78c1.015 0 1.015-.362 1.015-.822V4.122zm-3.207 37.137H6.491a1.096 1.096 0 0 1-1.095-1.097V7.041c0-.604.49-1.096 1.095-1.096h26.097c.604 0 1.095.492 1.095 1.096v33.121c0 .606-.491 1.097-1.095 1.097zM31.493 8.138H7.586v30.928h23.907V8.138zm-13.31 34.886c.712-.712 1.998-.712 2.71 0 .356.356.564.855.564 1.36 0 .504-.208.998-.564 1.355a1.934 1.934 0 0 1-1.353.564 1.937 1.937 0 0 1-1.357-.564 1.932 1.932 0 0 1 0-2.715z" class="cls-1"/></svg>