<svg xmlns="http://www.w3.org/2000/svg" xmlns:xlink="http://www.w3.org/1999/xlink" preserveAspectRatio="xMidYMid" width="31.406" height="31.41" viewBox="0 0 31.406 31.41">
  <defs>
    <style>
      .cls-1 {
        fill: #ccc;
        fill-rule: evenodd;
      }
    </style>
  </defs>
  <path d="M15.698,31.402 C7.041,31.402 -0.001,24.360 -0.001,15.704 C-0.001,7.047 7.041,0.005 15.698,0.005 C24.354,0.005 31.396,7.047 31.396,15.704 C31.396,24.360 24.354,31.402 15.698,31.402 ZM15.698,1.261 C7.734,1.261 1.255,7.739 1.255,15.704 C1.255,23.668 7.734,30.146 15.698,30.146 C23.661,30.146 30.140,23.668 30.140,15.704 C30.140,7.739 23.661,1.261 15.698,1.261 ZM14.956,21.732 C14.755,21.933 14.490,22.034 14.226,22.034 C13.962,22.034 13.697,21.933 13.496,21.732 L9.181,17.418 C8.777,17.015 8.777,16.362 9.181,15.958 C9.584,15.555 10.238,15.555 10.642,15.958 L14.226,19.541 L22.815,10.955 C23.219,10.552 23.873,10.552 24.276,10.955 C24.680,11.358 24.680,12.012 24.276,12.415 L14.956,21.732 Z" class="cls-1"/>
</svg>
