<svg xmlns="http://www.w3.org/2000/svg" xmlns:xlink="http://www.w3.org/1999/xlink" preserveAspectRatio="xMidYMid" width="53.84" height="42.562" viewBox="0 0 53.84 42.562">
  <defs>
    <style>
      .cls-1 {
        fill: #000;
        fill-rule: evenodd;
      }
    </style>
  </defs>
  <path d="M3.159,42.557 C2.602,42.557 2.039,42.409 1.528,42.100 C0.037,41.198 -0.441,39.257 0.462,37.766 L7.698,25.811 C8.243,24.910 9.202,24.340 10.254,24.292 C11.293,24.244 12.312,24.724 12.938,25.573 L15.876,29.557 L22.302,18.803 C22.840,17.902 23.790,17.328 24.837,17.271 C25.896,17.214 26.893,17.680 27.526,18.515 L33.098,25.864 L47.980,1.514 C48.889,0.026 50.832,-0.443 52.319,0.467 C53.806,1.376 54.275,3.318 53.365,4.805 L36.071,33.103 C35.527,33.994 34.578,34.558 33.536,34.609 C32.505,34.664 31.494,34.196 30.863,33.364 L25.321,26.054 L18.859,36.867 C18.318,37.774 17.358,38.350 16.303,38.400 C15.260,38.459 14.238,37.972 13.611,37.121 L10.656,33.113 L5.862,41.034 C5.268,42.015 4.227,42.557 3.159,42.557 Z" class="cls-1"/>
</svg>
