<svg xmlns="http://www.w3.org/2000/svg" xmlns:xlink="http://www.w3.org/1999/xlink" preserveAspectRatio="xMidYMid" width="52.188" height="47" viewBox="0 0 52.188 47">
  <defs>
    <style>
      .cls-1 {
        fill: #000;
        fill-rule: evenodd;
      }
    </style>
  </defs>
  <path d="M47.834,25.988 C37.147,37.895 27.703,46.335 27.609,46.419 C27.173,46.807 26.626,47.001 26.079,47.001 C25.533,47.001 24.986,46.807 24.550,46.419 C24.456,46.335 15.012,37.895 4.325,25.988 C-0.090,21.072 -1.209,14.742 1.330,9.057 C3.786,3.558 9.003,0.004 14.618,0.004 C20.307,0.004 23.960,2.532 26.079,5.230 C28.199,2.532 31.852,0.004 37.541,0.004 C43.156,0.004 48.372,3.558 50.829,9.057 C53.368,14.742 52.249,21.072 47.834,25.988 ZM46.631,10.930 C44.939,7.142 41.287,4.597 37.541,4.597 C29.896,4.597 28.373,10.458 28.312,10.708 C28.060,11.735 27.138,12.458 26.079,12.458 C25.021,12.458 24.099,11.735 23.847,10.708 C23.686,10.099 22.025,4.597 14.618,4.597 C10.872,4.597 7.219,7.142 5.528,10.930 C3.723,14.970 4.532,19.340 7.746,22.921 C15.742,31.828 23.017,38.753 26.079,41.591 C29.141,38.753 36.417,31.828 44.413,22.921 C47.627,19.340 48.436,14.970 46.631,10.930 ZM42.561,18.281 C42.509,18.284 42.457,18.285 42.406,18.285 C41.206,18.285 40.196,17.355 40.115,16.141 C39.846,12.099 37.017,11.668 36.897,11.652 C35.639,11.480 34.758,10.322 34.930,9.066 C35.101,7.810 36.256,6.926 37.517,7.101 C39.822,7.414 44.290,9.644 44.702,15.836 C44.786,17.102 43.827,18.196 42.561,18.281 ZM39.625,19.278 C40.228,19.278 40.820,19.525 41.251,19.950 C41.676,20.374 41.923,20.966 41.923,21.575 C41.923,22.177 41.676,22.769 41.251,23.199 C40.820,23.624 40.228,23.872 39.625,23.872 C39.021,23.872 38.429,23.624 37.999,23.199 C37.573,22.769 37.326,22.177 37.326,21.575 C37.326,20.966 37.573,20.374 37.999,19.950 C38.429,19.525 39.021,19.278 39.625,19.278 Z" class="cls-1"/>
</svg>
