<svg xmlns="http://www.w3.org/2000/svg" preserveAspectRatio="xMidYMid" width="31.406" height="31.41" viewBox="0 0 31.406 31.41"><defs><style>.cls-1{fill:#ccc;fill-rule:evenodd}</style></defs><path d="M15.698 31.402c-8.657 0-15.699-7.042-15.699-15.698C-.001 7.047 7.041.005 15.698.005c8.656 0 15.698 7.042 15.698 15.699 0 8.656-7.042 15.698-15.698 15.698zm0-30.141c-7.964 0-14.443 6.478-14.443 14.443 0 7.964 6.479 14.442 14.443 14.442 7.963 0 14.442-6.478 14.442-14.442 0-7.965-6.479-14.443-14.442-14.443zm-.742 20.471a1.03 1.03 0 0 1-1.46 0l-4.315-4.314a1.034 1.034 0 0 1 1.461-1.46l3.584 3.583 8.589-8.586a1.034 1.034 0 0 1 1.461 1.46l-9.32 9.317z" class="cls-1"/></svg>