<svg xmlns="http://www.w3.org/2000/svg" xmlns:xlink="http://www.w3.org/1999/xlink" preserveAspectRatio="xMidYMid" width="39.094" height="50.656" viewBox="0 0 39.094 50.656">
  <defs>
    <style>
      .cls-1 {
        fill: #000;
        fill-rule: evenodd;
      }
    </style>
  </defs>
  <path d="M34.780,50.671 L4.299,50.671 C1.686,50.671 -0.001,49.057 -0.001,46.559 L-0.001,4.122 C-0.001,1.624 1.686,0.010 4.299,0.010 L34.780,0.010 C37.392,0.010 39.080,1.624 39.080,4.122 L39.080,46.559 C39.080,49.057 37.392,50.671 34.780,50.671 ZM35.795,4.122 C35.795,3.663 35.795,3.300 34.780,3.300 L4.299,3.300 C3.283,3.300 3.283,3.663 3.283,4.122 L3.283,46.559 C3.283,47.019 3.283,47.381 4.299,47.381 L34.780,47.381 C35.795,47.381 35.795,47.019 35.795,46.559 L35.795,4.122 ZM32.588,41.259 L6.491,41.259 C5.886,41.259 5.396,40.768 5.396,40.162 L5.396,7.041 C5.396,6.437 5.886,5.945 6.491,5.945 L32.588,5.945 C33.192,5.945 33.683,6.437 33.683,7.041 L33.683,40.162 C33.683,40.768 33.192,41.259 32.588,41.259 ZM31.493,8.138 L7.586,8.138 L7.586,39.066 L31.493,39.066 L31.493,8.138 ZM18.183,43.024 C18.895,42.312 20.181,42.312 20.893,43.024 C21.249,43.380 21.457,43.879 21.457,44.384 C21.457,44.888 21.249,45.382 20.893,45.739 C20.537,46.094 20.044,46.303 19.540,46.303 C19.032,46.303 18.539,46.094 18.183,45.739 C17.827,45.382 17.624,44.888 17.624,44.384 C17.624,43.874 17.827,43.380 18.183,43.024 Z" class="cls-1"/>
</svg>
